<svg xmlns="http://www.w3.org/2000/svg" xmlns:xlink="http://www.w3.org/1999/xlink" width="360" zoomAndPan="magnify" viewBox="0 0 270 83.999999" height="112" preserveAspectRatio="xMidYMid meet" version="1.0"><defs><g/><clipPath id="96240fae6b"><path d="M 134.914062 29.5 L 174.621094 29.5 L 174.621094 53.933594 L 134.914062 53.933594 Z M 134.914062 29.5 " clip-rule="nonzero"/></clipPath></defs><g clip-path="url(#96240fae6b)"><path fill="#83bcf1" d="M 174.621094 47.824219 C 174.621094 51.199219 171.886719 53.933594 168.515625 53.933594 L 144.082031 53.933594 C 139.023438 53.933594 134.914062 49.832031 134.914062 44.773438 C 134.914062 39.707031 139.023438 35.609375 144.082031 35.609375 C 144.609375 35.609375 145.132812 35.652344 145.640625 35.738281 C 147.734375 32.015625 151.722656 29.5 156.296875 29.5 C 163.046875 29.5 168.515625 34.964844 168.515625 41.714844 C 171.886719 41.714844 174.621094 44.449219 174.621094 47.824219 " fill-opacity="1" fill-rule="nonzero"/></g><path stroke-linecap="butt" transform="matrix(0.75, 0, 0, 0.75, 19.276987, 23.346985)" fill="none" stroke-linejoin="miter" d="M 14.911935 6.714438 C 18.568185 6.714438 21.766102 7.412354 24.510894 8.808188 C 27.255686 10.204021 29.375477 12.214438 30.870269 14.829021 C 32.365061 17.448813 33.109853 20.495688 33.109853 23.980063 C 33.109853 27.469647 32.365061 30.495689 30.870269 33.063397 C 29.375477 35.625897 27.255686 37.589439 24.510894 38.954022 C 21.766102 40.318606 18.568185 41.000898 14.911935 41.000898 L 3.714018 41.000898 L 3.714018 6.714438 Z M 14.911935 36.412356 C 18.92756 36.412356 22.000477 35.329022 24.141102 33.157147 C 26.276519 30.985272 27.344227 27.922772 27.344227 23.980063 C 27.344227 20.000896 26.276519 16.891521 24.141102 14.662355 C 22.000477 12.422771 18.92756 11.302979 14.911935 11.302979 L 9.339018 11.302979 L 9.339018 36.412356 Z M 43.323395 17.766521 C 44.15152 16.386313 45.24527 15.313396 46.609853 14.542563 C 47.974437 13.761313 49.594228 13.370688 51.46402 13.370688 L 51.46402 19.198813 L 50.031728 19.198813 C 47.833812 19.198813 46.161937 19.761313 45.021312 20.875897 C 43.891103 21.99048 43.323395 23.92798 43.323395 26.693605 L 43.323395 41.000898 L 37.698395 41.000898 L 37.698395 13.818605 L 43.323395 13.818605 Z M 80.573397 26.74048 C 80.573397 27.761314 80.505688 28.683189 80.370272 29.511314 L 59.604646 29.511314 C 59.766104 31.67798 60.568187 33.422772 62.016104 34.735272 C 63.469229 36.052981 65.245271 36.714439 67.349438 36.714439 C 70.375479 36.714439 72.510896 35.443606 73.755688 32.907147 L 79.828605 32.907147 C 79.005688 35.412356 77.516105 37.464439 75.359855 39.063397 C 73.208813 40.651939 70.536938 41.443606 67.349438 41.443606 C 64.750479 41.443606 62.417146 40.865481 60.365062 39.698814 C 58.307771 38.526939 56.698395 36.881106 55.536937 34.761314 C 54.37027 32.641522 53.786937 30.183189 53.786937 27.391522 C 53.786937 24.589438 54.354645 22.125897 55.484854 20.006105 C 56.62027 17.886313 58.214021 16.256105 60.266104 15.105063 C 62.323396 13.948813 64.682771 13.370688 67.349438 13.370688 C 69.911938 13.370688 72.193188 13.933188 74.203605 15.058188 C 76.208813 16.172771 77.771313 17.745688 78.885897 19.766521 C 80.010897 21.792563 80.573397 24.11548 80.573397 26.74048 Z M 74.698396 24.969647 C 74.661938 22.89673 73.927563 21.235272 72.479646 19.985271 C 71.036938 18.730063 69.240063 18.105063 67.094229 18.105063 C 65.161938 18.105063 63.505687 18.724855 62.120271 19.95923 C 60.740062 21.198813 59.917146 22.86548 59.651521 24.969647 Z M 83.234855 27.282147 C 83.234855 24.55298 83.802563 22.136313 84.93798 20.032146 C 86.068189 17.92798 87.615064 16.292563 89.573397 15.131105 C 91.53173 13.95923 93.693189 13.370688 96.062981 13.370688 C 98.198397 13.370688 100.062981 13.792563 101.651523 14.636313 C 103.250481 15.469646 104.526523 16.516521 105.479648 17.766521 L 105.479648 13.818605 L 111.151523 13.818605 L 111.151523 41.000898 L 105.479648 41.000898 L 105.479648 36.954022 C 104.526523 38.240481 103.224439 39.308189 101.578606 40.167564 C 99.932773 41.021731 98.057772 41.443606 95.953606 41.443606 C 93.625481 41.443606 91.490064 40.849856 89.547355 39.651939 C 87.604647 38.448814 86.068189 36.766522 84.93798 34.615481 C 83.802563 32.45923 83.234855 30.011314 83.234855 27.282147 Z M 105.479648 27.391522 C 105.479648 25.511313 105.094231 23.881105 104.312981 22.500897 C 103.542148 21.120688 102.531731 20.068605 101.276523 19.344646 C 100.031731 18.620688 98.687981 18.261313 97.245272 18.261313 C 95.797356 18.261313 94.448397 18.61548 93.198397 19.323813 C 91.943189 20.026938 90.932772 21.063397 90.161939 22.42798 C 89.391105 23.792563 89.005689 25.412355 89.005689 27.282147 C 89.005689 29.162355 89.391105 30.808189 90.161939 32.219647 C 90.932772 33.631105 91.953605 34.709231 93.219231 35.448814 C 94.490064 36.188397 95.828606 36.558189 97.245272 36.558189 C 98.687981 36.558189 100.031731 36.193606 101.276523 35.469647 C 102.531731 34.750897 103.542148 33.688397 104.312981 32.292564 C 105.094231 30.89673 105.479648 29.261314 105.479648 27.391522 Z M 150.464025 13.370688 C 152.599442 13.370688 154.516109 13.818605 156.208817 14.70923 C 157.901525 15.594646 159.234859 16.907146 160.208817 18.657146 C 161.177567 20.401938 161.667151 22.506105 161.667151 24.969647 L 161.667151 41.000898 L 156.089025 41.000898 L 156.089025 25.80298 C 156.089025 23.370688 155.47965 21.506105 154.255692 20.214438 C 153.047358 18.912355 151.3859 18.261313 149.281733 18.261313 C 147.182775 18.261313 145.5109 18.912355 144.276525 20.214438 C 143.047358 21.506105 142.432775 23.370688 142.432775 25.80298 L 142.432775 41.000898 L 136.854649 41.000898 L 136.854649 25.80298 C 136.854649 23.370688 136.245274 21.506105 135.026524 20.214438 C 133.812983 18.912355 132.151524 18.261313 130.036941 18.261313 C 127.932774 18.261313 126.266107 18.912355 125.026524 20.214438 C 123.802565 21.506105 123.187982 23.370688 123.187982 25.80298 L 123.187982 41.000898 L 117.562982 41.000898 L 117.562982 13.818605 L 123.187982 13.818605 L 123.187982 16.922771 C 124.109857 15.808188 125.276524 14.938396 126.693191 14.313396 C 128.104649 13.683188 129.615066 13.370688 131.229649 13.370688 C 133.396316 13.370688 135.339024 13.83423 137.047358 14.756105 C 138.755691 15.683188 140.0734 17.011313 141.000483 18.756105 C 141.818191 17.110271 143.099441 15.80298 144.839025 14.829021 C 146.583816 13.860271 148.458817 13.370688 150.464025 13.370688 Z M 165.958817 23.776938 C 165.958817 20.42798 166.740067 17.422771 168.297359 14.756105 C 169.859859 12.089438 171.979651 10.011313 174.656735 8.516521 C 177.339026 7.016521 180.276526 6.266521 183.469235 6.266521 C 187.115068 6.266521 190.35986 7.167563 193.20361 8.964438 C 196.052569 10.756104 198.120277 13.292563 199.406736 16.573813 L 192.635902 16.573813 C 191.755694 14.77173 190.521319 13.422771 188.937985 12.542563 C 187.365068 11.651938 185.542152 11.204021 183.469235 11.204021 C 181.198402 11.204021 179.177568 11.714438 177.401526 12.735271 C 175.625485 13.756105 174.240068 15.219646 173.234859 17.131105 C 172.229651 19.032146 171.729651 21.250897 171.729651 23.776938 C 171.729651 26.313397 172.229651 28.537355 173.234859 30.448814 C 174.240068 32.355064 175.625485 33.823814 177.401526 34.860272 C 179.177568 35.891522 181.198402 36.412356 183.469235 36.412356 C 185.542152 36.412356 187.365068 35.969647 188.937985 35.084231 C 190.521319 34.193606 191.755694 32.844647 192.635902 31.042564 L 199.406736 31.042564 C 198.120277 34.323814 196.052569 36.855064 193.20361 38.641522 C 190.35986 40.412356 187.115068 41.302981 183.469235 41.302981 C 180.245276 41.302981 177.29736 40.552981 174.630693 39.063397 C 171.974443 37.558189 169.859859 35.474856 168.297359 32.808189 C 166.740067 30.14673 165.958817 27.136313 165.958817 23.776938 Z M 210.594236 4.495687 L 210.594236 41.000898 L 204.969236 41.000898 L 204.969236 4.495687 Z M 228.797362 41.443606 C 226.234862 41.443606 223.922362 40.865481 221.849445 39.698814 C 219.776528 38.526939 218.14632 36.881106 216.95882 34.761314 C 215.776528 32.641522 215.187987 30.183189 215.187987 27.391522 C 215.187987 24.620688 215.792153 22.167563 217.005695 20.032146 C 218.229653 17.89673 219.891112 16.256105 221.995279 15.105063 C 224.094237 13.948813 226.448404 13.370688 229.052571 13.370688 C 231.641112 13.370688 233.990071 13.948813 236.094238 15.105063 C 238.198404 16.256105 239.859863 17.89673 241.083821 20.032146 C 242.302571 22.167563 242.911946 24.620688 242.911946 27.391522 C 242.911946 30.151939 242.286946 32.599855 241.031738 34.735272 C 239.781738 36.870689 238.078613 38.526939 235.927571 39.698814 C 233.776529 40.865481 231.396321 41.443606 228.797362 41.443606 Z M 228.797362 36.558189 C 230.240071 36.558189 231.599446 36.209231 232.870279 35.521731 C 234.135904 34.829022 235.161946 33.792564 235.953613 32.412355 C 236.740071 31.032147 237.130696 29.360272 237.130696 27.391522 C 237.130696 25.417563 236.755696 23.745688 236.000488 22.381105 C 235.245279 21.016522 234.240071 19.99048 232.990071 19.297771 C 231.745279 18.605063 230.396321 18.261313 228.943196 18.261313 C 227.495279 18.261313 226.156737 18.605063 224.917154 19.297771 C 223.693195 19.99048 222.714029 21.016522 221.995279 22.381105 C 221.27132 23.745688 220.906737 25.417563 220.906737 27.391522 C 220.906737 30.313397 221.656737 32.573814 223.151529 34.172772 C 224.651529 35.761314 226.531737 36.558189 228.797362 36.558189 Z M 272.109864 13.818605 L 272.109864 41.000898 L 266.484864 41.000898 L 266.484864 37.797772 C 265.599447 38.912356 264.443197 39.792564 263.005697 40.433189 C 261.573405 41.073814 260.05778 41.396731 258.453614 41.396731 C 256.30778 41.396731 254.385905 40.954023 252.693197 40.073814 C 251.000488 39.183189 249.667155 37.865481 248.698405 36.120689 C 247.734863 34.370689 247.250488 32.266522 247.250488 29.797772 L 247.250488 13.818605 L 252.828613 13.818605 L 252.828613 28.969647 C 252.828613 31.401939 253.43278 33.266522 254.646322 34.568606 C 255.865072 35.860272 257.52653 36.506106 259.630697 36.506106 C 261.734864 36.506106 263.401531 35.860272 264.630697 34.568606 C 265.865072 33.266522 266.484864 31.401939 266.484864 28.969647 L 266.484864 13.818605 Z M 276.651531 27.282147 C 276.651531 24.55298 277.21924 22.136313 278.349448 20.032146 C 279.484865 17.92798 281.026531 16.292563 282.984865 15.131105 C 284.948407 13.95923 287.12549 13.370688 289.526532 13.370688 C 291.302574 13.370688 293.052574 13.761313 294.776532 14.542563 C 296.505699 15.313396 297.875491 16.33423 298.896324 17.610271 L 298.896324 4.495687 L 304.568199 4.495687 L 304.568199 41.000898 L 298.896324 41.000898 L 298.896324 36.907147 C 297.974449 38.219647 296.698407 39.308189 295.068199 40.167564 C 293.443199 41.021731 291.583824 41.443606 289.479657 41.443606 C 287.109865 41.443606 284.948407 40.849856 282.984865 39.651939 C 281.026531 38.448814 279.484865 36.766522 278.349448 34.615481 C 277.21924 32.45923 276.651531 30.011314 276.651531 27.282147 Z M 298.896324 27.391522 C 298.896324 25.511313 298.505699 23.881105 297.729657 22.500897 C 296.958824 21.120688 295.943199 20.068605 294.693199 19.344646 C 293.448407 18.620688 292.104657 18.261313 290.65674 18.261313 C 289.214032 18.261313 287.865073 18.61548 286.609865 19.323813 C 285.359865 20.026938 284.349448 21.063397 283.578615 22.42798 C 282.807781 23.792563 282.422365 25.412355 282.422365 27.282147 C 282.422365 29.162355 282.807781 30.808189 283.578615 32.219647 C 284.349448 33.631105 285.365073 34.709231 286.635907 35.448814 C 287.90674 36.188397 289.245282 36.558189 290.65674 36.558189 C 292.104657 36.558189 293.448407 36.193606 294.693199 35.469647 C 295.943199 34.750897 296.958824 33.688397 297.729657 32.292564 C 298.505699 30.89673 298.896324 29.261314 298.896324 27.391522 Z M 298.896324 27.391522 " stroke="#83bcf1" stroke-width="3.699997" stroke-opacity="1" stroke-miterlimit="4"/><g fill="#4d3adf" fill-opacity="1"><g transform="translate(19.288705, 54.096983)"><g><path d="M 11.171875 -25.71875 C 13.910156 -25.71875 16.304688 -25.191406 18.359375 -24.140625 C 20.421875 -23.085938 22.015625 -21.582031 23.140625 -19.625 C 24.265625 -17.664062 24.828125 -15.378906 24.828125 -12.765625 C 24.828125 -10.148438 24.265625 -7.878906 23.140625 -5.953125 C 22.015625 -4.035156 20.421875 -2.5625 18.359375 -1.53125 C 16.304688 -0.507812 13.910156 0 11.171875 0 L 2.78125 0 L 2.78125 -25.71875 Z M 11.171875 -3.4375 C 14.179688 -3.4375 16.488281 -4.25 18.09375 -5.875 C 19.695312 -7.507812 20.5 -9.804688 20.5 -12.765625 C 20.5 -15.742188 19.695312 -18.070312 18.09375 -19.75 C 16.488281 -21.4375 14.179688 -22.28125 11.171875 -22.28125 L 7 -22.28125 L 7 -3.4375 Z M 11.171875 -3.4375 "/></g></g></g><g fill="#4d3adf" fill-opacity="1"><g transform="translate(44.778917, 54.096983)"><g><path d="M 7 -17.421875 C 7.613281 -18.460938 8.429688 -19.269531 9.453125 -19.84375 C 10.472656 -20.425781 11.6875 -20.71875 13.09375 -20.71875 L 13.09375 -16.359375 L 12.03125 -16.359375 C 10.375 -16.359375 9.117188 -15.9375 8.265625 -15.09375 C 7.421875 -14.257812 7 -12.804688 7 -10.734375 L 7 0 L 2.78125 0 L 2.78125 -20.390625 L 7 -20.390625 Z M 7 -17.421875 "/></g></g></g><g fill="#4d3adf" fill-opacity="1"><g transform="translate(58.245405, 54.096983)"><g><path d="M 21.453125 -10.6875 C 21.453125 -9.925781 21.40625 -9.238281 21.3125 -8.625 L 5.734375 -8.625 C 5.859375 -6.988281 6.460938 -5.675781 7.546875 -4.6875 C 8.628906 -3.707031 9.960938 -3.21875 11.546875 -3.21875 C 13.816406 -3.21875 15.421875 -4.164062 16.359375 -6.0625 L 20.90625 -6.0625 C 20.289062 -4.1875 19.175781 -2.648438 17.5625 -1.453125 C 15.945312 -0.265625 13.941406 0.328125 11.546875 0.328125 C 9.597656 0.328125 7.851562 -0.109375 6.3125 -0.984375 C 4.769531 -1.859375 3.5625 -3.085938 2.6875 -4.671875 C 1.8125 -6.265625 1.375 -8.113281 1.375 -10.21875 C 1.375 -12.3125 1.796875 -14.148438 2.640625 -15.734375 C 3.492188 -17.328125 4.691406 -18.554688 6.234375 -19.421875 C 7.773438 -20.285156 9.546875 -20.71875 11.546875 -20.71875 C 13.472656 -20.71875 15.1875 -20.296875 16.6875 -19.453125 C 18.1875 -18.617188 19.351562 -17.441406 20.1875 -15.921875 C 21.03125 -14.410156 21.453125 -12.664062 21.453125 -10.6875 Z M 17.0625 -12.03125 C 17.03125 -13.582031 16.472656 -14.828125 15.390625 -15.765625 C 14.304688 -16.703125 12.960938 -17.171875 11.359375 -17.171875 C 9.898438 -17.171875 8.648438 -16.707031 7.609375 -15.78125 C 6.578125 -14.851562 5.960938 -13.601562 5.765625 -12.03125 Z M 17.0625 -12.03125 "/></g></g></g><g fill="#4d3adf" fill-opacity="1"><g transform="translate(80.331974, 54.096983)"><g><path d="M 1.375 -10.28125 C 1.375 -12.332031 1.796875 -14.144531 2.640625 -15.71875 C 3.492188 -17.300781 4.65625 -18.53125 6.125 -19.40625 C 7.59375 -20.28125 9.210938 -20.71875 10.984375 -20.71875 C 12.585938 -20.71875 13.988281 -20.398438 15.1875 -19.765625 C 16.382812 -19.140625 17.34375 -18.359375 18.0625 -17.421875 L 18.0625 -20.390625 L 22.3125 -20.390625 L 22.3125 0 L 18.0625 0 L 18.0625 -3.03125 C 17.34375 -2.070312 16.363281 -1.269531 15.125 -0.625 C 13.894531 0.0078125 12.492188 0.328125 10.921875 0.328125 C 9.160156 0.328125 7.550781 -0.117188 6.09375 -1.015625 C 4.644531 -1.921875 3.492188 -3.179688 2.640625 -4.796875 C 1.796875 -6.410156 1.375 -8.238281 1.375 -10.28125 Z M 18.0625 -10.21875 C 18.0625 -11.625 17.769531 -12.84375 17.1875 -13.875 C 16.601562 -14.90625 15.84375 -15.691406 14.90625 -16.234375 C 13.96875 -16.785156 12.957031 -17.0625 11.875 -17.0625 C 10.789062 -17.0625 9.78125 -16.796875 8.84375 -16.265625 C 7.90625 -15.734375 7.144531 -14.953125 6.5625 -13.921875 C 5.988281 -12.898438 5.703125 -11.6875 5.703125 -10.28125 C 5.703125 -8.875 5.988281 -7.640625 6.5625 -6.578125 C 7.144531 -5.523438 7.910156 -4.71875 8.859375 -4.15625 C 9.804688 -3.601562 10.8125 -3.328125 11.875 -3.328125 C 12.957031 -3.328125 13.96875 -3.597656 14.90625 -4.140625 C 15.84375 -4.679688 16.601562 -5.476562 17.1875 -6.53125 C 17.769531 -7.582031 18.0625 -8.8125 18.0625 -10.21875 Z M 18.0625 -10.21875 "/></g></g></g><g fill="#4d3adf" fill-opacity="1"><g transform="translate(104.675301, 54.096983)"><g><path d="M 27.453125 -20.71875 C 29.054688 -20.71875 30.492188 -20.382812 31.765625 -19.71875 C 33.035156 -19.050781 34.035156 -18.0625 34.765625 -16.75 C 35.492188 -15.445312 35.859375 -13.875 35.859375 -12.03125 L 35.859375 0 L 31.671875 0 L 31.671875 -11.390625 C 31.671875 -13.222656 31.210938 -14.625 30.296875 -15.59375 C 29.390625 -16.570312 28.144531 -17.0625 26.5625 -17.0625 C 24.988281 -17.0625 23.738281 -16.570312 22.8125 -15.59375 C 21.882812 -14.625 21.421875 -13.222656 21.421875 -11.390625 L 21.421875 0 L 17.234375 0 L 17.234375 -11.390625 C 17.234375 -13.222656 16.773438 -14.625 15.859375 -15.59375 C 14.953125 -16.570312 13.710938 -17.0625 12.140625 -17.0625 C 10.554688 -17.0625 9.300781 -16.570312 8.375 -15.59375 C 7.457031 -14.625 7 -13.222656 7 -11.390625 L 7 0 L 2.78125 0 L 2.78125 -20.390625 L 7 -20.390625 L 7 -18.0625 C 7.6875 -18.894531 8.5625 -19.546875 9.625 -20.015625 C 10.6875 -20.484375 11.820312 -20.71875 13.03125 -20.71875 C 14.65625 -20.71875 16.109375 -20.367188 17.390625 -19.671875 C 18.671875 -18.984375 19.65625 -17.988281 20.34375 -16.6875 C 20.96875 -17.914062 21.929688 -18.894531 23.234375 -19.625 C 24.546875 -20.351562 25.953125 -20.71875 27.453125 -20.71875 Z M 27.453125 -20.71875 "/></g></g></g><g fill="#4d3adf" fill-opacity="1"><g transform="translate(142.374209, 54.096983)"><g><path d="M 1.375 -12.90625 C 1.375 -15.425781 1.957031 -17.6875 3.125 -19.6875 C 4.300781 -21.6875 5.894531 -23.242188 7.90625 -24.359375 C 9.914062 -25.484375 12.113281 -26.046875 14.5 -26.046875 C 17.238281 -26.046875 19.675781 -25.375 21.8125 -24.03125 C 23.945312 -22.6875 25.492188 -20.78125 26.453125 -18.3125 L 21.390625 -18.3125 C 20.722656 -19.664062 19.796875 -20.675781 18.609375 -21.34375 C 17.421875 -22.007812 16.050781 -22.34375 14.5 -22.34375 C 12.800781 -22.34375 11.285156 -21.957031 9.953125 -21.1875 C 8.617188 -20.425781 7.578125 -19.332031 6.828125 -17.90625 C 6.078125 -16.476562 5.703125 -14.8125 5.703125 -12.90625 C 5.703125 -11.007812 6.078125 -9.34375 6.828125 -7.90625 C 7.578125 -6.476562 8.617188 -5.375 9.953125 -4.59375 C 11.285156 -3.820312 12.800781 -3.4375 14.5 -3.4375 C 16.050781 -3.4375 17.421875 -3.769531 18.609375 -4.4375 C 19.796875 -5.101562 20.722656 -6.113281 21.390625 -7.46875 L 26.453125 -7.46875 C 25.492188 -5.007812 23.945312 -3.113281 21.8125 -1.78125 C 19.675781 -0.445312 17.238281 0.21875 14.5 0.21875 C 12.082031 0.21875 9.875 -0.335938 7.875 -1.453125 C 5.882812 -2.578125 4.300781 -4.140625 3.125 -6.140625 C 1.957031 -8.140625 1.375 -10.394531 1.375 -12.90625 Z M 1.375 -12.90625 "/></g></g></g><g fill="#4d3adf" fill-opacity="1"><g transform="translate(170.232171, 54.096983)"><g><path d="M 7 -27.375 L 7 0 L 2.78125 0 L 2.78125 -27.375 Z M 7 -27.375 "/></g></g></g><g fill="#4d3adf" fill-opacity="1"><g transform="translate(179.259133, 54.096983)"><g><path d="M 11.625 0.328125 C 9.695312 0.328125 7.953125 -0.109375 6.390625 -0.984375 C 4.835938 -1.859375 3.617188 -3.085938 2.734375 -4.671875 C 1.847656 -6.265625 1.40625 -8.113281 1.40625 -10.21875 C 1.40625 -12.28125 1.859375 -14.113281 2.765625 -15.71875 C 3.679688 -17.320312 4.925781 -18.554688 6.5 -19.421875 C 8.082031 -20.285156 9.847656 -20.71875 11.796875 -20.71875 C 13.742188 -20.71875 15.507812 -20.285156 17.09375 -19.421875 C 18.675781 -18.554688 19.921875 -17.320312 20.828125 -15.71875 C 21.742188 -14.113281 22.203125 -12.28125 22.203125 -10.21875 C 22.203125 -8.144531 21.734375 -6.304688 20.796875 -4.703125 C 19.859375 -3.097656 18.582031 -1.859375 16.96875 -0.984375 C 15.351562 -0.109375 13.570312 0.328125 11.625 0.328125 Z M 11.625 -3.328125 C 12.707031 -3.328125 13.722656 -3.585938 14.671875 -4.109375 C 15.617188 -4.628906 16.390625 -5.40625 16.984375 -6.4375 C 17.578125 -7.46875 17.875 -8.726562 17.875 -10.21875 C 17.875 -11.695312 17.585938 -12.945312 17.015625 -13.96875 C 16.453125 -14.988281 15.703125 -15.757812 14.765625 -16.28125 C 13.828125 -16.800781 12.816406 -17.0625 11.734375 -17.0625 C 10.640625 -17.0625 9.628906 -16.800781 8.703125 -16.28125 C 7.785156 -15.757812 7.054688 -14.988281 6.515625 -13.96875 C 5.972656 -12.945312 5.703125 -11.695312 5.703125 -10.21875 C 5.703125 -8.019531 6.257812 -6.320312 7.375 -5.125 C 8.5 -3.925781 9.914062 -3.328125 11.625 -3.328125 Z M 11.625 -3.328125 "/></g></g></g><g fill="#4d3adf" fill-opacity="1"><g transform="translate(202.122619, 54.096983)"><g><path d="M 21.234375 -20.390625 L 21.234375 0 L 17.015625 0 L 17.015625 -2.40625 C 16.347656 -1.5625 15.476562 -0.898438 14.40625 -0.421875 C 13.332031 0.0546875 12.191406 0.296875 10.984375 0.296875 C 9.378906 0.296875 7.941406 -0.0351562 6.671875 -0.703125 C 5.398438 -1.367188 4.398438 -2.351562 3.671875 -3.65625 C 2.953125 -4.96875 2.59375 -6.550781 2.59375 -8.40625 L 2.59375 -20.390625 L 6.765625 -20.390625 L 6.765625 -9.03125 C 6.765625 -7.207031 7.222656 -5.804688 8.140625 -4.828125 C 9.054688 -3.847656 10.300781 -3.359375 11.875 -3.359375 C 13.457031 -3.359375 14.707031 -3.847656 15.625 -4.828125 C 16.550781 -5.804688 17.015625 -7.207031 17.015625 -9.03125 L 17.015625 -20.390625 Z M 21.234375 -20.390625 "/></g></g></g><g fill="#4d3adf" fill-opacity="1"><g transform="translate(225.393057, 54.096983)"><g><path d="M 1.375 -10.28125 C 1.375 -12.332031 1.796875 -14.144531 2.640625 -15.71875 C 3.492188 -17.300781 4.65625 -18.53125 6.125 -19.40625 C 7.59375 -20.28125 9.226562 -20.71875 11.03125 -20.71875 C 12.363281 -20.71875 13.675781 -20.425781 14.96875 -19.84375 C 16.257812 -19.269531 17.289062 -18.5 18.0625 -17.53125 L 18.0625 -27.375 L 22.3125 -27.375 L 22.3125 0 L 18.0625 0 L 18.0625 -3.078125 C 17.363281 -2.085938 16.40625 -1.269531 15.1875 -0.625 C 13.96875 0.0078125 12.566406 0.328125 10.984375 0.328125 C 9.210938 0.328125 7.59375 -0.117188 6.125 -1.015625 C 4.65625 -1.921875 3.492188 -3.179688 2.640625 -4.796875 C 1.796875 -6.410156 1.375 -8.238281 1.375 -10.28125 Z M 18.0625 -10.21875 C 18.0625 -11.625 17.769531 -12.84375 17.1875 -13.875 C 16.601562 -14.90625 15.84375 -15.691406 14.90625 -16.234375 C 13.96875 -16.785156 12.957031 -17.0625 11.875 -17.0625 C 10.789062 -17.0625 9.78125 -16.796875 8.84375 -16.265625 C 7.90625 -15.734375 7.144531 -14.953125 6.5625 -13.921875 C 5.988281 -12.898438 5.703125 -11.6875 5.703125 -10.28125 C 5.703125 -8.875 5.988281 -7.640625 6.5625 -6.578125 C 7.144531 -5.523438 7.910156 -4.71875 8.859375 -4.15625 C 9.804688 -3.601562 10.8125 -3.328125 11.875 -3.328125 C 12.957031 -3.328125 13.96875 -3.597656 14.90625 -4.140625 C 15.84375 -4.679688 16.601562 -5.476562 17.1875 -6.53125 C 17.769531 -7.582031 18.0625 -8.8125 18.0625 -10.21875 Z M 18.0625 -10.21875 "/></g></g></g></svg>